<svg width="79" height="36" viewBox="0 0 79 36" fill="none" xmlns="http://www.w3.org/2000/svg">
<path d="M20.16 35.48C33.456 35.48 39.84 29.816 39.84 18.152C39.84 6.536 33.456 0.919998 20.16 0.919998C6.816 0.919998 0.48 6.488 0.48 18.152C0.48 29.864 6.816 35.48 20.16 35.48ZM20.16 24.92C14.256 24.92 12.96 21.752 12.96 18.152C12.96 14.6 14.208 11.48 20.16 11.48C26.112 11.48 27.36 14.648 27.36 18.152C27.36 21.704 26.064 24.92 20.16 24.92ZM78.9045 11.48C78.9045 3.128 72.1365 0.919998 60.5685 0.919998C49.1445 0.919998 41.2725 3.128 41.2725 14.6H53.7525C53.7525 11.48 56.6325 11.48 61.0485 11.48C65.2245 11.48 66.4245 11.72 66.4245 13.16C66.4245 17.864 40.7925 16.664 40.7925 29.24V35H78.4245V24.44H60.0405C62.4405 20.696 78.9045 22.376 78.9045 11.48Z" fill="white"/>
<path d="M20.16 37.48C27.0429 37.48 32.5327 36.0211 36.3091 32.6898C40.1361 29.3139 41.84 24.3427 41.84 18.152H37.84C37.84 23.6253 36.3519 27.3181 33.6629 29.6902C30.9233 32.1069 26.5731 33.48 20.16 33.48V37.48ZM41.84 18.152C41.84 11.9827 40.1345 7.03355 36.3044 3.67605C32.5277 0.365385 27.0393 -1.08 20.16 -1.08V2.92C26.5767 2.92 30.9283 4.28261 33.6676 6.68395C36.3535 9.03845 37.84 12.7053 37.84 18.152H41.84ZM20.16 -1.08C13.2622 -1.08 7.7711 0.35103 3.99781 3.65788C0.169992 7.01252 -1.52 11.9651 -1.52 18.152H2.48C2.48 12.6749 3.95801 9.01148 6.63419 6.66612C9.3649 4.27297 13.7138 2.92 20.16 2.92V-1.08ZM-1.52 18.152C-1.52 24.3604 0.168427 29.3349 3.99312 32.708C7.7661 36.0355 13.2587 37.48 20.16 37.48V33.48C13.7173 33.48 9.3699 32.1165 6.63888 29.708C3.95957 27.3451 2.48 23.6556 2.48 18.152H-1.52ZM20.16 22.92C17.5504 22.92 16.4147 22.2279 15.8661 21.5862C15.2646 20.8828 14.96 19.7749 14.96 18.152H10.96C10.96 20.1291 11.3034 22.4052 12.8259 24.1858C14.4013 26.0281 16.8656 26.92 20.16 26.92V22.92ZM14.96 18.152C14.96 16.5451 15.2558 15.4703 15.8423 14.7905C16.3791 14.1682 17.5118 13.48 20.16 13.48V9.48C16.8562 9.48 14.3889 10.3518 12.8137 12.1775C11.2882 13.9457 10.96 16.2069 10.96 18.152H14.96ZM20.16 13.48C22.7989 13.48 23.9339 14.1751 24.4745 14.8048C25.0663 15.494 25.36 16.5742 25.36 18.152H29.36C29.36 16.2258 29.0297 13.97 27.5095 12.1992C25.9381 10.3689 23.4731 9.48 20.16 9.48V13.48ZM25.36 18.152C25.36 19.7458 25.0574 20.8591 24.4508 21.5719C23.8983 22.2211 22.7603 22.92 20.16 22.92V26.92C23.4637 26.92 25.9257 26.0109 27.4972 24.1641C29.0146 22.3809 29.36 20.1101 29.36 18.152H25.36ZM41.2725 14.6H39.2725V16.6H41.2725V14.6ZM53.7525 14.6V16.6H55.7525V14.6H53.7525ZM40.7925 35H38.7925V37H40.7925V35ZM78.4245 35V37H80.4245V35H78.4245ZM78.4245 24.44H80.4245V22.44H78.4245V24.44ZM60.0405 24.44L58.3567 23.3607L56.3828 26.44H60.0405V24.44ZM80.9045 11.48C80.9045 9.12057 80.4249 7.046 79.3887 5.29005C78.3478 3.52612 76.8282 2.22471 74.9812 1.28532C71.3883 -0.542013 66.3857 -1.08 60.5685 -1.08V2.92C66.3193 2.92 70.4847 3.48601 73.1678 4.85068C74.4588 5.50729 75.3542 6.32388 75.9438 7.32295C76.5381 8.32999 76.9045 9.66343 76.9045 11.48H80.9045ZM60.5685 -1.08C54.8333 -1.08 49.5252 -0.548248 45.6269 1.73155C43.6226 2.90368 41.9983 4.53128 40.8947 6.72332C39.802 8.89336 39.2725 11.5099 39.2725 14.6H43.2725C43.2725 11.9541 43.727 9.99264 44.4673 8.52218C45.1967 7.07371 46.2544 5.99832 47.6461 5.18445C50.5398 3.49224 54.8797 2.92 60.5685 2.92V-1.08ZM41.2725 16.6H53.7525V12.6H41.2725V16.6ZM55.7525 14.6C55.7525 14.3615 55.7803 14.2143 55.8044 14.1318C55.8267 14.0555 55.8477 14.0273 55.8541 14.0191C55.8594 14.0122 55.9415 13.9015 56.3308 13.7821C57.2467 13.5013 58.7063 13.48 61.0485 13.48V9.48C58.9747 9.48 56.7863 9.45868 55.1582 9.95786C54.2755 10.2285 53.3616 10.7028 52.6889 11.5734C52.008 12.4546 51.7525 13.5102 51.7525 14.6H55.7525ZM61.0485 13.48C63.2132 13.48 64.2484 13.5557 64.742 13.6998C64.9377 13.757 64.7796 13.7541 64.6024 13.5298C64.4085 13.2844 64.4245 13.0733 64.4245 13.16H68.4245C68.4245 12.5267 68.2905 11.7456 67.7411 11.0502C67.2084 10.3759 66.4893 10.043 65.863 9.86016C64.7126 9.52427 63.0598 9.48 61.0485 9.48V13.48ZM64.4245 13.16C64.4245 12.7019 64.7652 12.6731 64.2564 12.9939C63.7879 13.2893 62.9962 13.6156 61.8269 13.9783C60.6851 14.3325 59.3367 14.6769 57.8233 15.0603C56.3289 15.4388 54.6921 15.8509 53.051 16.3273C49.8039 17.2698 46.3232 18.5212 43.6292 20.4602C40.8652 22.4495 38.7925 25.2769 38.7925 29.24H42.7925C42.7925 26.9151 43.9238 25.1765 45.9658 23.7068C48.0778 22.1868 51.0051 21.0862 54.166 20.1687C55.7289 19.7151 57.2961 19.3202 58.8055 18.9378C60.2958 18.5603 61.7509 18.19 63.0121 17.7987C64.2458 17.4159 65.4566 16.9659 66.3899 16.3774C67.2828 15.8144 68.4245 14.7941 68.4245 13.16H64.4245ZM38.7925 29.24V35H42.7925V29.24H38.7925ZM40.7925 37H78.4245V33H40.7925V37ZM80.4245 35V24.44H76.4245V35H80.4245ZM78.4245 22.44H60.0405V26.44H78.4245V22.44ZM61.7243 25.5193C61.7377 25.4983 61.8792 25.3166 62.4213 25.0505C62.9407 24.7956 63.6458 24.55 64.5517 24.2903C65.4547 24.0314 66.4486 23.788 67.5581 23.505C68.6468 23.2274 69.8174 22.9187 70.9808 22.5472C73.2762 21.8143 75.7371 20.7801 77.6378 19.057C79.6192 17.2608 80.9045 14.792 80.9045 11.48H76.9045C76.9045 13.616 76.1318 15.0232 74.9512 16.0935C73.6899 17.2369 71.8848 18.0597 69.7642 18.7368C68.7196 19.0703 67.6447 19.3549 66.5696 19.6291C65.5154 19.8979 64.4273 20.1648 63.4493 20.4452C62.4742 20.7248 61.4993 21.0473 60.659 21.4597C59.8413 21.8609 58.9433 22.4457 58.3567 23.3607L61.7243 25.5193Z" fill="#222628"/>
</svg>
