<svg width="79" height="36" viewBox="0 0 79 36" fill="none" xmlns="http://www.w3.org/2000/svg">
<path d="M20.16 35.48C33.456 35.48 39.84 29.816 39.84 18.152C39.84 6.536 33.456 0.919998 20.16 0.919998C6.816 0.919998 0.48 6.488 0.48 18.152C0.48 29.864 6.816 35.48 20.16 35.48ZM20.16 24.92C14.256 24.92 12.96 21.752 12.96 18.152C12.96 14.6 14.208 11.48 20.16 11.48C26.112 11.48 27.36 14.648 27.36 18.152C27.36 21.704 26.064 24.92 20.16 24.92ZM65.0805 13.16C59.6565 13.16 57.1605 14.12 53.6085 15.368L55.1925 11H76.5045V1.4H46.5045L42.1845 18.872L51.7365 20.456C55.5765 18.968 58.3605 18.344 61.4325 18.344C65.2725 18.344 66.4245 19.496 66.4245 21.608C66.4245 23.816 65.2245 24.92 60.8085 24.92C56.1525 24.92 53.2725 24.92 53.2725 22.52H40.7925C40.7925 33.272 48.9045 35.48 60.5685 35.48C72.3765 35.48 78.9045 32.312 78.9045 23.96C78.9045 17.336 73.7685 13.16 65.0805 13.16Z" fill="white"/>
<path d="M20.16 37.48C27.0429 37.48 32.5327 36.0211 36.3091 32.6898C40.1361 29.3139 41.84 24.3427 41.84 18.152H37.84C37.84 23.6253 36.3519 27.3181 33.6629 29.6902C30.9233 32.1069 26.5731 33.48 20.16 33.48V37.48ZM41.84 18.152C41.84 11.9827 40.1345 7.03355 36.3044 3.67605C32.5277 0.365385 27.0393 -1.08 20.16 -1.08V2.92C26.5767 2.92 30.9283 4.28261 33.6676 6.68395C36.3535 9.03845 37.84 12.7053 37.84 18.152H41.84ZM20.16 -1.08C13.2622 -1.08 7.7711 0.35103 3.99781 3.65788C0.169992 7.01252 -1.52 11.9651 -1.52 18.152H2.48C2.48 12.6749 3.95801 9.01148 6.63419 6.66612C9.3649 4.27297 13.7138 2.92 20.16 2.92V-1.08ZM-1.52 18.152C-1.52 24.3604 0.168427 29.3349 3.99312 32.708C7.7661 36.0355 13.2587 37.48 20.16 37.48V33.48C13.7173 33.48 9.3699 32.1165 6.63888 29.708C3.95957 27.3451 2.48 23.6556 2.48 18.152H-1.52ZM20.16 22.92C17.5504 22.92 16.4147 22.2279 15.8661 21.5862C15.2646 20.8828 14.96 19.7749 14.96 18.152H10.96C10.96 20.1291 11.3034 22.4052 12.8259 24.1858C14.4013 26.0281 16.8656 26.92 20.16 26.92V22.92ZM14.96 18.152C14.96 16.5451 15.2558 15.4703 15.8423 14.7905C16.3791 14.1682 17.5118 13.48 20.16 13.48V9.48C16.8562 9.48 14.3889 10.3518 12.8137 12.1775C11.2882 13.9457 10.96 16.2069 10.96 18.152H14.96ZM20.16 13.48C22.7989 13.48 23.9339 14.1751 24.4745 14.8048C25.0663 15.494 25.36 16.5742 25.36 18.152H29.36C29.36 16.2258 29.0297 13.97 27.5095 12.1992C25.9381 10.3689 23.4731 9.48 20.16 9.48V13.48ZM25.36 18.152C25.36 19.7458 25.0574 20.8591 24.4508 21.5719C23.8983 22.2211 22.7603 22.92 20.16 22.92V26.92C23.4637 26.92 25.9257 26.0109 27.4972 24.1641C29.0146 22.3809 29.36 20.1101 29.36 18.152H25.36ZM53.6085 15.368L51.7283 14.6862L50.2894 18.654L54.2715 17.2549L53.6085 15.368ZM55.1925 11V9H53.7903L53.3123 10.3182L55.1925 11ZM76.5045 11V13H78.5045V11H76.5045ZM76.5045 1.4H78.5045V-0.600002H76.5045V1.4ZM46.5045 1.4V-0.600002H44.9388L44.563 0.919948L46.5045 1.4ZM42.1845 18.872L40.243 18.3919L39.7239 20.4913L41.8573 20.8451L42.1845 18.872ZM51.7365 20.456L51.4093 22.4291L51.949 22.5186L52.4591 22.3209L51.7365 20.456ZM53.2725 22.52H55.2725V20.52H53.2725V22.52ZM40.7925 22.52V20.52H38.7925V22.52H40.7925ZM65.0805 11.16C59.3077 11.16 56.5507 12.2144 52.9455 13.4811L54.2715 17.2549C57.7703 16.0256 60.0054 15.16 65.0805 15.16V11.16ZM55.4887 16.0498L57.0727 11.6818L53.3123 10.3182L51.7283 14.6862L55.4887 16.0498ZM55.1925 13H76.5045V9H55.1925V13ZM78.5045 11V1.4H74.5045V11H78.5045ZM76.5045 -0.600002H46.5045V3.4H76.5045V-0.600002ZM44.563 0.919948L40.243 18.3919L44.126 19.352L48.446 1.88005L44.563 0.919948ZM41.8573 20.8451L51.4093 22.4291L52.0637 18.4829L42.5117 16.8989L41.8573 20.8451ZM52.4591 22.3209C56.1535 20.8893 58.6847 20.344 61.4325 20.344V16.344C58.0363 16.344 54.9995 17.0467 51.0139 18.5911L52.4591 22.3209ZM61.4325 20.344C63.2471 20.344 63.961 20.6354 64.2012 20.808C64.2659 20.8545 64.4245 20.9356 64.4245 21.608H68.4245C68.4245 20.1684 68.0071 18.6175 66.5358 17.56C65.24 16.6286 63.4579 16.344 61.4325 16.344V20.344ZM64.4245 21.608C64.4245 22.3111 64.2691 22.359 64.185 22.4135C63.8527 22.6288 62.9607 22.92 60.8085 22.92V26.92C63.0723 26.92 64.9883 26.6592 66.36 25.7705C67.9799 24.721 68.4245 23.1129 68.4245 21.608H64.4245ZM60.8085 22.92C58.3743 22.92 56.7691 22.9074 55.7436 22.6711C55.2585 22.5593 55.1648 22.4492 55.1985 22.4824C55.2995 22.5819 55.2725 22.678 55.2725 22.52H51.2725C51.2725 23.562 51.6055 24.5581 52.392 25.3326C53.1112 26.0408 54.0285 26.3807 54.8454 26.5689C56.4239 26.9326 58.5867 26.92 60.8085 26.92V22.92ZM53.2725 20.52H40.7925V24.52H53.2725V20.52ZM38.7925 22.52C38.7925 25.4569 39.3469 27.9609 40.4887 30.0427C41.6387 32.1396 43.3157 33.682 45.3509 34.7889C49.3153 36.9451 54.7092 37.48 60.5685 37.48V33.48C54.7638 33.48 50.2697 32.9109 47.2621 31.2751C45.8113 30.486 44.7313 29.4604 43.9958 28.1193C43.2521 26.7631 42.7925 24.9591 42.7925 22.52H38.7925ZM60.5685 37.48C66.5741 37.48 71.6019 36.6887 75.1817 34.574C77.0093 33.4944 78.4693 32.0638 79.4589 30.2355C80.444 28.4156 80.9045 26.3102 80.9045 23.96H76.9045C76.9045 25.7858 76.549 27.2084 75.9411 28.3315C75.3377 29.4462 74.4277 30.3736 73.1473 31.13C70.5111 32.6873 66.3709 33.48 60.5685 33.48V37.48ZM80.9045 23.96C80.9045 20.08 79.3738 16.7842 76.4902 14.5065C73.6617 12.2724 69.7185 11.16 65.0805 11.16V15.16C69.1305 15.16 72.0993 16.1356 74.0108 17.6455C75.8672 19.1118 76.9045 21.216 76.9045 23.96H80.9045Z" fill="#222628"/>
</svg>
