<svg width="73" height="36" viewBox="0 0 73 36" fill="none" xmlns="http://www.w3.org/2000/svg">
<path d="M20.16 35.48C33.456 35.48 39.84 29.816 39.84 18.152C39.84 6.536 33.456 0.919998 20.16 0.919998C6.816 0.919998 0.48 6.488 0.48 18.152C0.48 29.864 6.816 35.48 20.16 35.48ZM20.16 24.92C14.256 24.92 12.96 21.752 12.96 18.152C12.96 14.6 14.208 11.48 20.16 11.48C26.112 11.48 27.36 14.648 27.36 18.152C27.36 21.704 26.064 24.92 20.16 24.92ZM63.3525 24.44V1.4H50.8725C50.8725 6.2 46.2165 6.2 41.2725 6.2V16.76C44.7765 16.76 47.3685 16.76 51.0165 13.544L50.9205 24.44H41.2725V35H72.9525V24.44H63.3525Z" fill="white"/>
<path d="M20.16 37.48C27.0429 37.48 32.5327 36.0211 36.3091 32.6898C40.1361 29.3139 41.84 24.3427 41.84 18.152H37.84C37.84 23.6253 36.3519 27.3181 33.6629 29.6902C30.9233 32.1069 26.5731 33.48 20.16 33.48V37.48ZM41.84 18.152C41.84 11.9827 40.1345 7.03355 36.3044 3.67605C32.5277 0.365385 27.0393 -1.08 20.16 -1.08V2.92C26.5767 2.92 30.9283 4.28261 33.6676 6.68395C36.3535 9.03845 37.84 12.7053 37.84 18.152H41.84ZM20.16 -1.08C13.2622 -1.08 7.7711 0.35103 3.99781 3.65788C0.169992 7.01252 -1.52 11.9651 -1.52 18.152H2.48C2.48 12.6749 3.95801 9.01148 6.63419 6.66612C9.3649 4.27297 13.7138 2.92 20.16 2.92V-1.08ZM-1.52 18.152C-1.52 24.3604 0.168427 29.3349 3.99312 32.708C7.7661 36.0355 13.2587 37.48 20.16 37.48V33.48C13.7173 33.48 9.3699 32.1165 6.63888 29.708C3.95957 27.3451 2.48 23.6556 2.48 18.152H-1.52ZM20.16 22.92C17.5504 22.92 16.4147 22.2279 15.8661 21.5862C15.2646 20.8828 14.96 19.7749 14.96 18.152H10.96C10.96 20.1291 11.3034 22.4052 12.8259 24.1858C14.4013 26.0281 16.8656 26.92 20.16 26.92V22.92ZM14.96 18.152C14.96 16.5451 15.2558 15.4703 15.8423 14.7905C16.3791 14.1682 17.5118 13.48 20.16 13.48V9.48C16.8562 9.48 14.3889 10.3518 12.8137 12.1775C11.2882 13.9457 10.96 16.2069 10.96 18.152H14.96ZM20.16 13.48C22.7989 13.48 23.9339 14.1751 24.4745 14.8048C25.0663 15.494 25.36 16.5742 25.36 18.152H29.36C29.36 16.2258 29.0297 13.97 27.5095 12.1992C25.9381 10.3689 23.4731 9.48 20.16 9.48V13.48ZM25.36 18.152C25.36 19.7458 25.0574 20.8591 24.4508 21.5719C23.8983 22.2211 22.7603 22.92 20.16 22.92V26.92C23.4637 26.92 25.9257 26.0109 27.4972 24.1641C29.0146 22.3809 29.36 20.1101 29.36 18.152H25.36ZM63.3525 24.44H61.3525V26.44H63.3525V24.44ZM63.3525 1.4H65.3525V-0.600002H63.3525V1.4ZM50.8725 1.4V-0.600002H48.8725V1.4H50.8725ZM41.2725 6.2V4.2H39.2725V6.2H41.2725ZM41.2725 16.76H39.2725V18.76H41.2725V16.76ZM51.0165 13.544L53.0164 13.5616L53.0559 9.07988L49.6939 12.0437L51.0165 13.544ZM50.9205 24.44V26.44H52.903L52.9204 24.4576L50.9205 24.44ZM41.2725 24.44V22.44H39.2725V24.44H41.2725ZM41.2725 35H39.2725V37H41.2725V35ZM72.9525 35V37H74.9525V35H72.9525ZM72.9525 24.44H74.9525V22.44H72.9525V24.44ZM65.3525 24.44V1.4H61.3525V24.44H65.3525ZM63.3525 -0.600002H50.8725V3.4H63.3525V-0.600002ZM48.8725 1.4C48.8725 2.26761 48.6677 2.71224 48.4763 2.96371C48.2752 3.22789 47.928 3.48916 47.2883 3.70456C45.8857 4.17682 43.8634 4.2 41.2725 4.2V8.2C43.6256 8.2 46.4033 8.22318 48.5647 7.49544C49.707 7.11084 50.8328 6.47211 51.6592 5.38629C52.4953 4.28775 52.8725 2.93239 52.8725 1.4H48.8725ZM39.2725 6.2V16.76H43.2725V6.2H39.2725ZM41.2725 18.76C42.979 18.76 44.7632 18.7709 46.595 18.2933C48.4909 17.7991 50.3232 16.8215 52.3391 15.0443L49.6939 12.0437C48.0618 13.4825 46.7741 14.1129 45.586 14.4227C44.3338 14.7491 43.07 14.76 41.2725 14.76V18.76ZM49.0166 13.5264L48.9206 24.4224L52.9204 24.4576L53.0164 13.5616L49.0166 13.5264ZM50.9205 22.44H41.2725V26.44H50.9205V22.44ZM39.2725 24.44V35H43.2725V24.44H39.2725ZM41.2725 37H72.9525V33H41.2725V37ZM74.9525 35V24.44H70.9525V35H74.9525ZM72.9525 22.44H63.3525V26.44H72.9525V22.44Z" fill="#222628"/>
</svg>
