<svg width="79" height="36" viewBox="0 0 79 36" fill="none" xmlns="http://www.w3.org/2000/svg">
<path d="M20.16 35.48C33.456 35.48 39.84 29.816 39.84 18.152C39.84 6.536 33.456 0.919998 20.16 0.919998C6.816 0.919998 0.48 6.488 0.48 18.152C0.48 29.864 6.816 35.48 20.16 35.48ZM20.16 24.92C14.256 24.92 12.96 21.752 12.96 18.152C12.96 14.6 14.208 11.48 20.16 11.48C26.112 11.48 27.36 14.648 27.36 18.152C27.36 21.704 26.064 24.92 20.16 24.92ZM74.1525 18.2C77.1765 16.616 78.9045 14.312 78.9045 11C78.9045 3.128 72.1365 0.919998 60.3285 0.919998C48.6645 0.919998 40.7925 3.128 40.7925 14.12H53.2725C53.2725 11.48 56.1525 11.48 60.8085 11.48C65.2245 11.48 66.4245 11.48 66.4245 13.208C66.4245 15.32 65.2245 15.32 56.0085 15.32V21.08C65.2245 21.08 66.4245 21.08 66.4245 23.192C66.4245 24.92 65.2245 24.92 60.8085 24.92C56.1525 24.92 53.2725 24.92 53.2725 22.28H40.7925C40.7925 33.272 48.6645 35.48 60.3285 35.48C72.1365 35.48 78.9045 33.272 78.9045 25.4C78.9045 22.088 77.1765 19.784 74.1525 18.2Z" fill="white"/>
<path d="M20.16 37.48C27.0429 37.48 32.5327 36.0211 36.3091 32.6898C40.1361 29.3139 41.84 24.3427 41.84 18.152H37.84C37.84 23.6253 36.3519 27.3181 33.6629 29.6902C30.9233 32.1069 26.5731 33.48 20.16 33.48V37.48ZM41.84 18.152C41.84 11.9827 40.1345 7.03355 36.3044 3.67605C32.5277 0.365385 27.0393 -1.08 20.16 -1.08V2.92C26.5767 2.92 30.9283 4.28261 33.6676 6.68395C36.3535 9.03845 37.84 12.7053 37.84 18.152H41.84ZM20.16 -1.08C13.2622 -1.08 7.7711 0.35103 3.99781 3.65788C0.169992 7.01252 -1.52 11.9651 -1.52 18.152H2.48C2.48 12.6749 3.95801 9.01148 6.63419 6.66612C9.3649 4.27297 13.7138 2.92 20.16 2.92V-1.08ZM-1.52 18.152C-1.52 24.3604 0.168427 29.3349 3.99312 32.708C7.7661 36.0355 13.2587 37.48 20.16 37.48V33.48C13.7173 33.48 9.3699 32.1165 6.63888 29.708C3.95957 27.3451 2.48 23.6556 2.48 18.152H-1.52ZM20.16 22.92C17.5504 22.92 16.4147 22.2279 15.8661 21.5862C15.2646 20.8828 14.96 19.7749 14.96 18.152H10.96C10.96 20.1291 11.3034 22.4052 12.8259 24.1858C14.4013 26.0281 16.8656 26.92 20.16 26.92V22.92ZM14.96 18.152C14.96 16.5451 15.2558 15.4703 15.8423 14.7905C16.3791 14.1682 17.5118 13.48 20.16 13.48V9.48C16.8562 9.48 14.3889 10.3518 12.8137 12.1775C11.2882 13.9457 10.96 16.2069 10.96 18.152H14.96ZM20.16 13.48C22.7989 13.48 23.9339 14.1751 24.4745 14.8048C25.0663 15.494 25.36 16.5742 25.36 18.152H29.36C29.36 16.2258 29.0297 13.97 27.5095 12.1992C25.9381 10.3689 23.4731 9.48 20.16 9.48V13.48ZM25.36 18.152C25.36 19.7458 25.0574 20.8591 24.4508 21.5719C23.8983 22.2211 22.7603 22.92 20.16 22.92V26.92C23.4637 26.92 25.9257 26.0109 27.4972 24.1641C29.0146 22.3809 29.36 20.1101 29.36 18.152H25.36ZM74.1525 18.2L73.2245 16.4283L69.8422 18.2L73.2245 19.9717L74.1525 18.2ZM40.7925 14.12H38.7925V16.12H40.7925V14.12ZM53.2725 14.12V16.12H55.2725V14.12H53.2725ZM56.0085 15.32V13.32H54.0085V15.32H56.0085ZM56.0085 21.08H54.0085V23.08H56.0085V21.08ZM53.2725 22.28H55.2725V20.28H53.2725V22.28ZM40.7925 22.28V20.28H38.7925V22.28H40.7925ZM75.0805 19.9717C76.8015 19.0702 78.2743 17.901 79.315 16.3747C80.3688 14.8291 80.9045 13.0259 80.9045 11H76.9045C76.9045 12.2861 76.5762 13.2909 76.01 14.1213C75.4307 14.971 74.5275 15.7458 73.2245 16.4283L75.0805 19.9717ZM80.9045 11C80.9045 8.74034 80.4161 6.74078 79.3598 5.04609C78.3026 3.3499 76.7679 2.10574 74.917 1.20837C71.31 -0.540497 66.2672 -1.08 60.3285 -1.08V2.92C66.1978 2.92 70.443 3.48449 73.172 4.80763C74.4891 5.44626 75.3844 6.2301 75.9652 7.16191C76.5469 8.09522 76.9045 9.32366 76.9045 11H80.9045ZM60.3285 -1.08C54.474 -1.08 49.123 -0.547163 45.2064 1.6546C43.1928 2.78661 41.552 4.36115 40.434 6.49054C39.3262 8.60053 38.7925 11.1384 38.7925 14.12H42.7925C42.7925 11.6056 43.2428 9.74547 43.9755 8.34996C44.698 6.97384 45.7542 5.93539 47.1666 5.14139C50.1021 3.49116 54.519 2.92 60.3285 2.92V-1.08ZM40.7925 16.12H53.2725V12.12H40.7925V16.12ZM55.2725 14.12C55.2725 13.8483 55.3335 13.8759 55.2647 13.9504C55.2405 13.9767 55.327 13.865 55.7859 13.7487C56.7863 13.4951 58.3646 13.48 60.8085 13.48V9.48C58.5964 9.48 56.4067 9.46486 54.8031 9.8713C53.96 10.085 53.0355 10.4683 52.3258 11.2371C51.5715 12.0541 51.2725 13.0717 51.2725 14.12H55.2725ZM60.8085 13.48C61.926 13.48 62.787 13.4803 63.4754 13.5056C64.1833 13.5317 64.5707 13.5814 64.781 13.6347C64.9749 13.6838 64.7658 13.6738 64.5656 13.4058C64.3769 13.1531 64.4245 12.9722 64.4245 13.208H68.4245C68.4245 12.5798 68.3221 11.7509 67.7704 11.0122C67.2072 10.2582 66.4221 9.92418 65.764 9.75733C65.1223 9.59465 64.3817 9.5363 63.6226 9.50835C62.844 9.47969 61.899 9.48 60.8085 9.48V13.48ZM64.4245 13.208C64.4245 13.6142 64.3483 13.3893 64.5794 13.1218C64.7816 12.8876 64.9133 12.9794 64.3147 13.0883C63.0913 13.3107 60.7401 13.32 56.0085 13.32V17.32C60.4929 17.32 63.3497 17.3293 65.0303 17.0237C65.8837 16.8686 66.8914 16.5644 67.6067 15.7362C68.3507 14.8747 68.4245 13.8578 68.4245 13.208H64.4245ZM54.0085 15.32V21.08H58.0085V15.32H54.0085ZM56.0085 23.08C60.7401 23.08 63.0913 23.0893 64.3147 23.3117C64.9133 23.4206 64.7816 23.5124 64.5794 23.2782C64.3483 23.0107 64.4245 22.7858 64.4245 23.192H68.4245C68.4245 22.5422 68.3507 21.5253 67.6067 20.6638C66.8914 19.8356 65.8837 19.5314 65.0303 19.3763C63.3497 19.0707 60.4929 19.08 56.0085 19.08V23.08ZM64.4245 23.192C64.4245 23.4278 64.3769 23.2469 64.5656 22.9942C64.7658 22.7262 64.9749 22.7162 64.781 22.7653C64.5707 22.8186 64.1833 22.8683 63.4754 22.8944C62.787 22.9197 61.926 22.92 60.8085 22.92V26.92C61.899 26.92 62.844 26.9203 63.6226 26.8916C64.3817 26.8637 65.1223 26.8054 65.764 26.6427C66.4221 26.4758 67.2072 26.1418 67.7704 25.3878C68.3221 24.6491 68.4245 23.8202 68.4245 23.192H64.4245ZM60.8085 22.92C58.3646 22.92 56.7863 22.9049 55.7859 22.6513C55.327 22.535 55.2405 22.4233 55.2647 22.4496C55.3335 22.5241 55.2725 22.5517 55.2725 22.28H51.2725C51.2725 23.3283 51.5715 24.3459 52.3258 25.1629C53.0355 25.9317 53.96 26.315 54.8031 26.5287C56.4067 26.9351 58.5964 26.92 60.8085 26.92V22.92ZM53.2725 20.28H40.7925V24.28H53.2725V20.28ZM38.7925 22.28C38.7925 25.2616 39.3262 27.7995 40.434 29.9095C41.552 32.0388 43.1928 33.6134 45.2064 34.7454C49.123 36.9472 54.474 37.48 60.3285 37.48V33.48C54.519 33.48 50.1021 32.9088 47.1666 31.2586C45.7542 30.4646 44.698 29.4262 43.9755 28.05C43.2428 26.6545 42.7925 24.7944 42.7925 22.28H38.7925ZM60.3285 37.48C66.2672 37.48 71.31 36.9405 74.917 35.1916C76.7679 34.2943 78.3026 33.0501 79.3598 31.3539C80.4161 29.6592 80.9045 27.6597 80.9045 25.4H76.9045C76.9045 27.0763 76.5469 28.3048 75.9652 29.2381C75.3844 30.1699 74.4891 30.9537 73.172 31.5924C70.443 32.9155 66.1978 33.48 60.3285 33.48V37.48ZM80.9045 25.4C80.9045 23.3741 80.3688 21.5709 79.315 20.0253C78.2743 18.499 76.8015 17.3298 75.0805 16.4283L73.2245 19.9717C74.5275 20.6542 75.4307 21.429 76.01 22.2787C76.5762 23.1091 76.9045 24.1139 76.9045 25.4H80.9045Z" fill="#222628"/>
</svg>
