<svg width="80" height="36" viewBox="0 0 80 36" fill="none" xmlns="http://www.w3.org/2000/svg">
<path d="M20.16 35.48C33.456 35.48 39.84 29.816 39.84 18.152C39.84 6.536 33.456 0.919998 20.16 0.919998C6.816 0.919998 0.48 6.488 0.48 18.152C0.48 29.864 6.816 35.48 20.16 35.48ZM20.16 24.92C14.256 24.92 12.96 21.752 12.96 18.152C12.96 14.6 14.208 11.48 20.16 11.48C26.112 11.48 27.36 14.648 27.36 18.152C27.36 21.704 26.064 24.92 20.16 24.92ZM64.6005 13.16C60.6165 13.16 56.8725 13.736 54.0405 15.656C54.8085 11.672 57.0645 10.52 61.5285 10.52C67.7685 10.52 72.6645 11.624 77.4165 12.536V2.936C73.3365 2.072 67.7685 0.919998 59.4165 0.919998C49.5285 0.919998 41.2725 5.096 41.2725 19.016C41.2725 29.864 47.6085 35.48 61.4325 35.48C73.2885 35.48 79.6725 31.736 79.6725 23.912C79.6725 16.616 73.2885 13.16 64.6005 13.16ZM60.4725 25.88C55.0485 25.88 53.7525 24.584 53.7525 22.232C53.7525 19.88 55.0005 18.68 60.4725 18.68C65.9445 18.68 67.1925 19.928 67.1925 22.232C67.1925 24.584 65.8965 25.88 60.4725 25.88Z" fill="white"/>
<path d="M20.16 37.48C27.0429 37.48 32.5327 36.0211 36.3091 32.6898C40.1361 29.3139 41.84 24.3427 41.84 18.152H37.84C37.84 23.6253 36.3519 27.3181 33.6629 29.6902C30.9233 32.1069 26.5731 33.48 20.16 33.48V37.48ZM41.84 18.152C41.84 11.9827 40.1345 7.03355 36.3044 3.67605C32.5277 0.365385 27.0393 -1.08 20.16 -1.08V2.92C26.5767 2.92 30.9283 4.28261 33.6676 6.68395C36.3535 9.03845 37.84 12.7053 37.84 18.152H41.84ZM20.16 -1.08C13.2622 -1.08 7.7711 0.35103 3.99781 3.65788C0.169992 7.01252 -1.52 11.9651 -1.52 18.152H2.48C2.48 12.6749 3.95801 9.01148 6.63419 6.66612C9.3649 4.27297 13.7138 2.92 20.16 2.92V-1.08ZM-1.52 18.152C-1.52 24.3604 0.168427 29.3349 3.99312 32.708C7.7661 36.0355 13.2587 37.48 20.16 37.48V33.48C13.7173 33.48 9.3699 32.1165 6.63888 29.708C3.95957 27.3451 2.48 23.6556 2.48 18.152H-1.52ZM20.16 22.92C17.5504 22.92 16.4147 22.2279 15.8661 21.5862C15.2646 20.8828 14.96 19.7749 14.96 18.152H10.96C10.96 20.1291 11.3034 22.4052 12.8259 24.1858C14.4013 26.0281 16.8656 26.92 20.16 26.92V22.92ZM14.96 18.152C14.96 16.5451 15.2558 15.4703 15.8423 14.7905C16.3791 14.1682 17.5118 13.48 20.16 13.48V9.48C16.8562 9.48 14.3889 10.3518 12.8137 12.1775C11.2882 13.9457 10.96 16.2069 10.96 18.152H14.96ZM20.16 13.48C22.7989 13.48 23.9339 14.1751 24.4745 14.8048C25.0663 15.494 25.36 16.5742 25.36 18.152H29.36C29.36 16.2258 29.0297 13.97 27.5095 12.1992C25.9381 10.3689 23.4731 9.48 20.16 9.48V13.48ZM25.36 18.152C25.36 19.7458 25.0574 20.8591 24.4508 21.5719C23.8983 22.2211 22.7603 22.92 20.16 22.92V26.92C23.4637 26.92 25.9257 26.0109 27.4972 24.1641C29.0146 22.3809 29.36 20.1101 29.36 18.152H25.36ZM54.0405 15.656L52.0767 15.2774L51.1616 20.0241L55.1628 17.3114L54.0405 15.656ZM77.4165 12.536L77.0395 14.5002L79.4165 14.9563V12.536H77.4165ZM77.4165 2.936H79.4165V1.31517L77.8308 0.979388L77.4165 2.936ZM64.6005 11.16C60.4907 11.16 56.2525 11.74 52.9182 14.0006L55.1628 17.3114C57.4925 15.732 60.7423 15.16 64.6005 15.16V11.16ZM56.0043 16.0346C56.3245 14.374 56.873 13.6681 57.4829 13.2745C58.2012 12.8109 59.3962 12.52 61.5285 12.52V8.52C59.1968 8.52 57.0318 8.80506 55.3141 9.91353C53.488 11.0919 52.5245 12.954 52.0767 15.2774L56.0043 16.0346ZM61.5285 12.52C67.5383 12.52 72.2287 13.5769 77.0395 14.5002L77.7935 10.5718C73.1003 9.67115 67.9987 8.52 61.5285 8.52V12.52ZM79.4165 12.536V2.936H75.4165V12.536H79.4165ZM77.8308 0.979388C73.7021 0.105074 67.9753 -1.08 59.4165 -1.08V2.92C67.5617 2.92 72.9709 4.03892 77.0022 4.89261L77.8308 0.979388ZM59.4165 -1.08C54.2389 -1.08 49.1555 0.00622775 45.3469 3.21933C41.4731 6.48735 39.2725 11.6497 39.2725 19.016H43.2725C43.2725 12.4623 45.1999 8.57665 47.9261 6.27667C50.7175 3.92177 54.7061 2.92 59.4165 2.92V-1.08ZM39.2725 19.016C39.2725 24.8388 40.9891 29.6033 44.8881 32.8524C48.7139 36.0406 54.3033 37.48 61.4325 37.48V33.48C54.7377 33.48 50.2471 32.1114 47.4489 29.7796C44.7239 27.5087 43.2725 24.0412 43.2725 19.016H39.2725ZM61.4325 37.48C67.5083 37.48 72.5111 36.5319 76.0546 34.3284C79.7505 32.0302 81.6725 28.478 81.6725 23.912H77.6725C77.6725 27.17 76.4025 29.4018 73.9424 30.9316C71.3299 32.5561 67.2127 33.48 61.4325 33.48V37.48ZM81.6725 23.912C81.6725 19.5775 79.727 16.2702 76.4987 14.1325C73.3708 12.0612 69.1658 11.16 64.6005 11.16V15.16C68.7232 15.16 72.0542 15.9868 74.2903 17.4675C76.4261 18.8818 77.6725 20.9505 77.6725 23.912H81.6725ZM60.4725 23.88C57.8086 23.88 56.622 23.5402 56.1284 23.2357C55.9441 23.1221 55.8914 23.0345 55.8594 22.9644C55.8123 22.8609 55.7525 22.6498 55.7525 22.232H51.7525C51.7525 22.9902 51.8547 23.8231 52.2201 24.6241C52.6006 25.4585 53.2109 26.1359 54.0286 26.6403C55.539 27.5718 57.7124 27.88 60.4725 27.88V23.88ZM55.7525 22.232C55.7525 21.8044 55.8121 21.6036 55.8521 21.5158C55.8745 21.4668 55.9115 21.3952 56.0849 21.2917C56.5739 21.0001 57.763 20.68 60.4725 20.68V16.68C57.71 16.68 55.5391 16.9599 54.0361 17.8563C53.2135 18.3468 52.5965 19.0162 52.2139 19.8537C51.8489 20.6524 51.7525 21.4836 51.7525 22.232H55.7525ZM60.4725 20.68C63.1716 20.68 64.3624 21.0099 64.8525 21.3052C65.0305 21.4124 65.071 21.4885 65.0945 21.5396C65.1344 21.6266 65.1925 21.8216 65.1925 22.232H69.1925C69.1925 21.4904 69.0946 20.6654 68.7295 19.8704C68.348 19.0395 67.7345 18.3716 66.9165 17.8788C65.4146 16.9741 63.2454 16.68 60.4725 16.68V20.68ZM65.1925 22.232C65.1925 22.6498 65.1327 22.8609 65.0855 22.9644C65.0536 23.0345 65.0009 23.1221 64.8166 23.2357C64.323 23.5402 63.1364 23.88 60.4725 23.88V27.88C63.2326 27.88 65.406 27.5718 66.9164 26.6403C67.7341 26.1359 68.3444 25.4585 68.7249 24.6241C69.0903 23.8231 69.1925 22.9902 69.1925 22.232H65.1925Z" fill="#222628"/>
</svg>
