<svg width="81" height="36" viewBox="0 0 81 36" fill="none" xmlns="http://www.w3.org/2000/svg">
<path d="M20.16 35.48C33.456 35.48 39.84 29.816 39.84 18.152C39.84 6.536 33.456 0.919998 20.16 0.919998C6.816 0.919998 0.48 6.488 0.48 18.152C0.48 29.864 6.816 35.48 20.16 35.48ZM20.16 24.92C14.256 24.92 12.96 21.752 12.96 18.152C12.96 14.6 14.208 11.48 20.16 11.48C26.112 11.48 27.36 14.648 27.36 18.152C27.36 21.704 26.064 24.92 20.16 24.92ZM80.3445 20.6H75.5445V1.4H63.0645L41.2725 20.6V31.16H63.0645V35H75.5445V31.16H80.3445V20.6ZM52.7925 20.6L63.0645 11.96V20.6H52.7925Z" fill="white"/>
<path d="M20.16 37.48C27.0429 37.48 32.5327 36.0211 36.3091 32.6898C40.1361 29.3139 41.84 24.3427 41.84 18.152H37.84C37.84 23.6253 36.3519 27.3181 33.6629 29.6902C30.9233 32.1069 26.5731 33.48 20.16 33.48V37.48ZM41.84 18.152C41.84 11.9827 40.1345 7.03355 36.3044 3.67605C32.5277 0.365385 27.0393 -1.08 20.16 -1.08V2.92C26.5767 2.92 30.9283 4.28261 33.6676 6.68395C36.3535 9.03845 37.84 12.7053 37.84 18.152H41.84ZM20.16 -1.08C13.2622 -1.08 7.7711 0.35103 3.99781 3.65788C0.169992 7.01252 -1.52 11.9651 -1.52 18.152H2.48C2.48 12.6749 3.95801 9.01148 6.63419 6.66612C9.3649 4.27297 13.7138 2.92 20.16 2.92V-1.08ZM-1.52 18.152C-1.52 24.3604 0.168427 29.3349 3.99312 32.708C7.7661 36.0355 13.2587 37.48 20.16 37.48V33.48C13.7173 33.48 9.3699 32.1165 6.63888 29.708C3.95957 27.3451 2.48 23.6556 2.48 18.152H-1.52ZM20.16 22.92C17.5504 22.92 16.4147 22.2279 15.8661 21.5862C15.2646 20.8828 14.96 19.7749 14.96 18.152H10.96C10.96 20.1291 11.3034 22.4052 12.8259 24.1858C14.4013 26.0281 16.8656 26.92 20.16 26.92V22.92ZM14.96 18.152C14.96 16.5451 15.2558 15.4703 15.8423 14.7905C16.3791 14.1682 17.5118 13.48 20.16 13.48V9.48C16.8562 9.48 14.3889 10.3518 12.8137 12.1775C11.2882 13.9457 10.96 16.2069 10.96 18.152H14.96ZM20.16 13.48C22.7989 13.48 23.9339 14.1751 24.4745 14.8048C25.0663 15.494 25.36 16.5742 25.36 18.152H29.36C29.36 16.2258 29.0297 13.97 27.5095 12.1992C25.9381 10.3689 23.4731 9.48 20.16 9.48V13.48ZM25.36 18.152C25.36 19.7458 25.0574 20.8591 24.4508 21.5719C23.8983 22.2211 22.7603 22.92 20.16 22.92V26.92C23.4637 26.92 25.9257 26.0109 27.4972 24.1641C29.0146 22.3809 29.36 20.1101 29.36 18.152H25.36ZM80.3445 20.6H82.3445V18.6H80.3445V20.6ZM75.5445 20.6H73.5445V22.6H75.5445V20.6ZM75.5445 1.4H77.5445V-0.600002H75.5445V1.4ZM63.0645 1.4V-0.600002H62.3091L61.7424 -0.100642L63.0645 1.4ZM41.2725 20.6L39.9504 19.0994L39.2725 19.6966V20.6H41.2725ZM41.2725 31.16H39.2725V33.16H41.2725V31.16ZM63.0645 31.16H65.0645V29.16H63.0645V31.16ZM63.0645 35H61.0645V37H63.0645V35ZM75.5445 35V37H77.5445V35H75.5445ZM75.5445 31.16V29.16H73.5445V31.16H75.5445ZM80.3445 31.16V33.16H82.3445V31.16H80.3445ZM52.7925 20.6L51.5051 19.0694L47.3077 22.6H52.7925V20.6ZM63.0645 11.96H65.0645V7.66434L61.7771 10.4294L63.0645 11.96ZM63.0645 20.6V22.6H65.0645V20.6H63.0645ZM80.3445 18.6H75.5445V22.6H80.3445V18.6ZM77.5445 20.6V1.4H73.5445V20.6H77.5445ZM75.5445 -0.600002H63.0645V3.4H75.5445V-0.600002ZM61.7424 -0.100642L39.9504 19.0994L42.5947 22.1006L64.3867 2.90064L61.7424 -0.100642ZM39.2725 20.6V31.16H43.2725V20.6H39.2725ZM41.2725 33.16H63.0645V29.16H41.2725V33.16ZM61.0645 31.16V35H65.0645V31.16H61.0645ZM63.0645 37H75.5445V33H63.0645V37ZM77.5445 35V31.16H73.5445V35H77.5445ZM75.5445 33.16H80.3445V29.16H75.5445V33.16ZM82.3445 31.16V20.6H78.3445V31.16H82.3445ZM54.0799 22.1306L64.3519 13.4906L61.7771 10.4294L51.5051 19.0694L54.0799 22.1306ZM61.0645 11.96V20.6H65.0645V11.96H61.0645ZM63.0645 18.6H52.7925V22.6H63.0645V18.6Z" fill="#222628"/>
</svg>
